Hanif_Medium_7_5_grf.mot
version=1
nRows=26
nColumns=19
inDegrees=yes
endheader
time	right_ground_force_vx	right_ground_force_vy	right_ground_force_vz	right_ground_force_px	right_ground_force_py	right_ground_force_pz	right_ground_torque_x	right_ground_torque_y	right_ground_torque_z	left_ground_force_vx	left_ground_force_vy	left_ground_force_vz	left_ground_force_px	left_ground_force_py	left_ground_force_pz	left_ground_torque_x	left_ground_torque_y	left_ground_torque_z
6.975000	-6.734190	414.049000	43.693300	0.215355	0.000000	-1.432670	-30.379400	-0.141648	6.465800	-1.814500	388.116000	-53.370300	0.235582	0.000000	-0.985467	32.028900	-2.711550	14.464500
6.980000	-7.430300	410.148000	44.516800	0.215808	0.000000	-1.432350	-30.223300	-0.311329	6.585470	-1.673850	383.336000	-53.892400	0.235726	0.000000	-0.986088	31.871400	-2.745190	14.371300
6.985000	-7.491220	405.940000	45.219700	0.215654	0.000000	-1.432020	-30.045000	-0.425078	6.447860	-1.617840	379.972000	-53.677600	0.235732	0.000000	-0.986473	31.737800	-2.729310	14.252800
6.990000	-7.940230	403.580000	45.783900	0.215871	0.000000	-1.432620	-29.629900	-0.509817	6.495900	-1.569070	378.592000	-53.959200	0.235497	0.000000	-0.986051	31.462500	-2.748350	14.122200
6.995000	-7.952530	400.734000	46.975600	0.216206	0.000000	-1.432310	-29.547100	-0.515462	6.591950	-1.936710	376.463000	-54.366600	0.235479	0.000000	-0.985929	31.244500	-2.733760	14.052900
7.000000	-8.233650	399.282000	47.685400	0.216553	0.000000	-1.432880	-29.212300	-0.626431	6.700550	-2.370550	374.043000	-54.731500	0.235653	0.000000	-0.986501	31.263500	-2.667490	14.040700
7.005000	-8.253220	396.185000	48.480200	0.217070	0.000000	-1.432570	-29.109300	-0.601685	6.864660	-2.044190	372.458000	-55.153900	0.235643	0.000000	-0.986368	31.077400	-2.680800	13.989000
7.010000	-8.246750	395.991000	48.776500	0.216669	0.000000	-1.432330	-29.189300	-0.588285	6.703210	-1.677450	370.321000	-55.816100	0.234894	0.000000	-0.986094	30.793200	-2.750890	13.651000
7.015000	-8.422750	392.290000	49.198900	0.217274	0.000000	-1.432350	-28.907800	-0.679160	6.875790	-1.478440	366.672000	-55.546600	0.235149	0.000000	-0.986073	30.480100	-2.769180	13.622000
7.020000	-8.375040	390.796000	49.616100	0.217979	0.000000	-1.432870	-28.594300	-0.711918	7.126750	-1.885970	363.957000	-56.121400	0.235487	0.000000	-0.985521	30.059000	-2.674700	13.659400
7.025000	-8.740430	386.913000	49.828100	0.218004	0.000000	-1.432480	-28.464700	-0.785996	7.062890	-2.283960	360.801000	-55.916200	0.235712	0.000000	-0.986124	30.022400	-2.742440	13.649000
7.030000	-9.536990	385.377000	50.148400	0.218291	0.000000	-1.433370	-28.011500	-0.743103	7.161630	-2.831660	358.869000	-55.520900	0.236309	0.000000	-0.986002	29.826200	-2.726780	13.800300
7.035000	-10.087400	381.389000	50.455500	0.218219	0.000000	-1.432790	-27.943200	-0.827315	7.058360	-3.182700	356.000000	-55.213800	0.236816	0.000000	-0.986011	29.597000	-2.763850	13.891300
7.040000	-10.607700	379.147000	50.927600	0.218876	0.000000	-1.432880	-27.747400	-0.811512	7.280900	-3.694360	352.054000	-54.774800	0.236974	0.000000	-0.986431	29.426200	-2.810120	13.817200
7.045000	-11.356800	376.809000	51.584800	0.219011	0.000000	-1.433570	-27.321700	-0.808934	7.299590	-3.659900	348.625000	-54.791300	0.237118	0.000000	-0.986745	29.250000	-2.842940	13.754900
7.050000	-11.290000	374.486000	52.677100	0.219116	0.000000	-1.432610	-27.511800	-0.855844	7.296560	-3.787030	346.241000	-54.386000	0.237593	0.000000	-0.986276	28.891000	-2.910550	13.844100
7.055000	-11.910600	372.114000	53.017100	0.218734	0.000000	-1.432800	-27.273200	-0.831146	7.118620	-3.775590	343.034000	-53.985100	0.237568	0.000000	-0.986548	28.718100	-2.955600	13.721000
7.060000	-11.409800	369.383000	53.412200	0.219577	0.000000	-1.433240	-26.908900	-0.857663	7.378640	-3.709140	339.371000	-54.303600	0.237326	0.000000	-0.986808	28.500600	-3.038690	13.527700
7.065000	-11.631200	365.852000	53.916600	0.219844	0.000000	-1.432260	-27.010500	-0.864433	7.416800	-3.377130	336.777000	-53.908200	0.236899	0.000000	-0.986472	28.165300	-3.086030	13.284200
7.070000	-11.167600	363.406000	54.331700	0.220438	0.000000	-1.432630	-26.698100	-0.783182	7.598570	-2.895090	334.720000	-53.662500	0.236864	0.000000	-0.986324	27.936800	-3.172850	13.203500
7.075000	-10.602900	362.310000	54.339600	0.220257	0.000000	-1.432340	-26.724000	-0.695797	7.517350	-2.285000	331.803000	-53.886700	0.236846	0.000000	-0.986324	27.684600	-3.272450	13.110300
7.080000	-10.298100	359.559000	54.755500	0.220385	0.000000	-1.431470	-26.835300	-0.630394	7.520480	-1.809090	329.663000	-53.737200	0.236208	0.000000	-0.985403	27.195000	-3.331080	12.820800
7.085000	-10.273200	357.507000	54.993500	0.220373	0.000000	-1.431800	-26.564800	-0.520729	7.493160	-1.744430	326.831000	-53.837500	0.235307	0.000000	-0.985722	27.065100	-3.393990	12.435300
7.090000	-9.140860	356.684000	55.297800	0.220154	0.000000	-1.432260	-26.335400	-0.458375	7.394820	-0.861637	323.703000	-53.999400	0.235233	0.000000	-0.985475	26.711800	-3.402240	12.301900
7.095000	-9.013150	354.301000	55.541300	0.220186	0.000000	-1.431600	-26.396800	-0.315193	7.383430	-0.636853	319.551000	-54.255700	0.234975	0.000000	-0.984776	26.142200	-3.421490	12.088200
7.100000	-8.422230	350.566000	55.684800	0.220470	0.000000	-1.431050	-26.311300	-0.278861	7.413080	-0.726251	315.064000	-54.140300	0.234640	0.000000	-0.985243	25.924300	-3.496790	11.847100
